<svg xmlns="http://www.w3.org/2000/svg" viewBox="0 0 200 150">
  <!-- Левая нота -->
  <path d="M60 20 L60 100 Q65 95 70 100 Q75 105 80 100 L85 95 Q90 90 85 85 L70 70 Q65 65 60 70 L55 75 Q50 80 55 85 Z" 
        fill="none" stroke="#FF6584" stroke-width="3"/>
  <circle cx="60" cy="120" r="15" fill="#FF6584"/>
  
  <!-- Правая нота -->
  <path d="M140 30 L140 110 Q145 105 150 110 Q155 115 160 110 L165 105 Q170 100 165 95 L150 80 Q145 75 140 80 L135 85 Q130 90 135 95 Z" 
        fill="none" stroke="#36D399" stroke-width="3"/>
  <circle cx="140" cy="130" r="15" fill="#36D399"/>
</svg>
